<?xml version="1.0" encoding="UTF-8"?>
<svg width="61px" height="38px" viewBox="0 0 61 38" version="1.1" xmlns="http://www.w3.org/2000/svg" xmlns:xlink="http://www.w3.org/1999/xlink">
    <!-- Generator: Sketch 45.2 (43514) - http://www.bohemiancoding.com/sketch -->
    <title>Group 2</title>
    <desc>Created with Sketch.</desc>
    <defs></defs>
    <g id="Symbols" stroke="none" stroke-width="1" fill="none" fill-rule="evenodd">
        <g id="Footer" transform="translate(-168.000000, -241.000000)">
            <g id="Group-2">
                <g transform="translate(168.000000, 241.000000)">
                    <path d="M13.0870417,33.8430714 C11.5530611,35.5878482 9.92181944,36.4004375 7.95338333,36.4004375 C4.44740833,36.4004375 1.59464167,33.44 1.59464167,29.8009911 L1.59464167,29.7422946 C1.59464167,26.0741071 4.37471667,23.2008661 7.92406944,23.2008661 C9.86471667,23.2008661 11.4803694,23.961375 13.0090972,25.5945268 L13.3335833,25.9414464 L14.4697083,24.8805 L14.1406472,24.5322232 C12.8042389,23.1131607 11.0233778,21.6628839 7.95338333,21.6628839 C5.79330556,21.6628839 3.77962778,22.5166964 2.28411111,24.0674018 C0.811130556,25.5943571 0,27.6200625 0,29.7713036 L0,29.8301696 C0,34.3011071 3.55494444,37.9385893 7.92406944,37.9385893 C10.4191389,37.9385893 12.4863611,36.9373571 14.2441778,34.8767054 L14.5395194,34.530125 L13.41085,33.4742679 L13.0870417,33.8430714" id="Fill-1" fill="#FFFFFF"></path>
                    <path d="M18.9757444,24.8056875 L18.9757444,22.0135357 L17.4099083,22.0135357 L17.4099083,37.5877679 L18.9757444,37.5877679 L18.9757444,29.5370268 C18.9757444,26.8916161 21.0278861,23.2008661 24.3708556,23.2008661 L24.9927167,23.2008661 L24.9927167,21.6669554 L24.4604917,21.6627143 C21.9694889,21.6627143 20.0934,23.0481875 18.9757444,24.8056875" id="Fill-2" fill="#FFFFFF"></path>
                    <path d="M38.5211611,22.013875 L38.5211611,30.7073929 C38.5211611,34.3253661 36.6613389,36.4004375 33.4185111,36.4004375 C30.1758528,36.4004375 28.3155222,34.3253661 28.3155222,30.7073929 L28.3155222,22.013875 L26.7503639,22.013875 L26.7503639,30.7659196 C26.7503639,35.190375 29.2828806,37.9385893 33.3602222,37.9385893 L33.4771389,37.9385893 C37.5539722,37.9385893 40.0863194,35.190375 40.0863194,30.7659196 L40.0863194,22.013875 L38.5211611,22.013875" id="Fill-3" fill="#FFFFFF"></path>
                    <polyline id="Fill-4" fill="#32C3D7" points="50.5112194 0.0181517857 50.5112194 10.4649286 61 10.4649286 61 11.9854375 48.9928278 11.9854375 48.9928278 0 50.5112194 0.0181517857"></polyline>
                    <polyline id="Fill-5" fill="#05699B" points="45.5975 10.4649286 45.5975 3.11345536 47.1172472 3.11786607 47.1172472 11.9854375 38.1348278 11.9854375 38.1348278 10.4649286 45.5975 10.4649286"></polyline>
                    <polyline id="Fill-6" fill="#EB8223" points="57.9022167 13.8572768 57.9022167 15.3786339 50.5112194 15.3786339 50.5112194 30.1175446 48.9928278 30.1175446 48.9928278 13.8572768 57.9022167 13.8572768"></polyline>
                    <polyline id="Fill-7" fill="#F5BE19" points="47.1175861 13.8572768 47.1175861 21.6788304 47.1172472 25.9368661 45.5975 25.9368661 45.5975 15.3782946 35.0833028 15.3782946 35.0833028 13.8572768 47.1175861 13.8572768"></polyline>
                </g>
            </g>
        </g>
    </g>
</svg>