<?xml version="1.0" encoding="UTF-8"?>
<svg width="72px" height="45px" viewBox="0 0 72 45" version="1.1" xmlns="http://www.w3.org/2000/svg" xmlns:xlink="http://www.w3.org/1999/xlink">
    <!-- Generator: Sketch 45.2 (43514) - http://www.bohemiancoding.com/sketch -->
    <title>Group Copy</title>
    <desc>Created with Sketch.</desc>
    <defs></defs>
    <g id="Symbols" stroke="none" stroke-width="1" fill="none" fill-rule="evenodd">
        <g id="Nav" transform="translate(-684.000000, -28.000000)">
            <g id="Group-Copy" transform="translate(684.000000, 28.000000)">
                <g id="Group-2">
                    <g id="Group-3">
                        <path d="M15.2593846,39.3160061 C13.4707757,41.3317944 11.5687611,42.270601 9.27358057,42.270601 C5.18564211,42.270601 1.85933927,38.8503267 1.85933927,34.6460801 L1.85933927,34.5782666 C1.85933927,30.3403092 5.10088421,27.0207753 9.23940081,27.0207753 C11.5021798,27.0207753 13.3860178,27.899412 15.168502,29.7862369 L15.5468502,30.1870427 L16.8715628,28.9613023 L16.4878802,28.5589286 C14.9296389,26.9194469 12.8531692,25.2439024 9.27358057,25.2439024 C6.75494737,25.2439024 4.40701538,26.2303354 2.66325506,28.0219077 C0.94577166,29.7860409 0,32.1263937 0,34.6117814 L0,34.6797909 C0,39.8451873 4.14503644,44.0476699 9.23940081,44.0476699 C12.1486316,44.0476699 14.558996,42.890919 16.608596,40.5101916 L16.9529619,40.1097779 L15.6369425,38.8899172 L15.2593846,39.3160061" id="Fill-1" fill="#5A5A5A"></path>
                        <path d="M22.9411368,28.8750653 L22.9411368,25.649216 L21.1153846,25.649216 L21.1153846,43.6425523 L22.9411368,43.6425523 L22.9411368,34.341311 C22.9411368,31.2849956 25.3339174,27.0209713 29.2317927,27.0209713 L29.9568777,27.0209713 L29.9568777,25.2488023 L29.3363077,25.2439024 C26.4318186,25.2439024 24.2443142,26.8445775 22.9411368,28.8750653" id="Fill-2" fill="#5A5A5A"></path>
                        <path d="M44.8420632,25.2439024 L44.8420632,35.2877613 C44.8420632,39.4677047 42.6735255,41.8650915 38.8924146,41.8650915 C35.1115012,41.8650915 32.9423709,39.4677047 32.9423709,35.2877613 L32.9423709,25.2439024 L31.1174089,25.2439024 L31.1174089,35.3553789 C31.1174089,40.4670732 34.0703028,43.6421603 38.8244502,43.6421603 L38.9607741,43.6421603 C43.7143287,43.6421603 46.6670251,40.4670732 46.6670251,35.3553789 L46.6670251,25.2439024 L44.8420632,25.2439024" id="Fill-3" fill="#5A5A5A"></path>
                        <polyline id="Fill-4" fill="#32C3D7" points="59.5599061 0.0209712544 59.5599061 12.0904181 71.7897393 12.0904181 71.7897393 13.8471037 57.7894737 13.8471037 57.7894737 0 59.5599061 0.0209712544"></polyline>
                        <polyline id="Fill-5" fill="#05699B" points="53.1548567 11.7860409 53.1548567 3.29268293 54.9268696 3.29777875 54.9268696 13.5427265 44.4534413 13.5427265 44.4534413 11.7860409 53.1548567 11.7860409"></polyline>
                        <polyline id="Fill-6" fill="#EB8223" points="68.177749 16.4634146 68.177749 18.2210801 59.5599061 18.2210801 59.5599061 35.2493467 57.7894737 35.2493467 57.7894737 16.4634146 68.177749 16.4634146"></polyline>
                        <polyline id="Fill-7" fill="#F5BE19" points="55.1513101 16.4634146 55.1513101 25.4998693 55.150915 30.4192944 53.378902 30.4192944 53.378902 18.2206882 41.1194332 18.2206882 41.1194332 16.4634146 55.1513101 16.4634146"></polyline>
                    </g>
                </g>
            </g>
        </g>
    </g>
</svg>