<?xml version="1.0" encoding="UTF-8"?>
<svg width="16px" height="16px" viewBox="0 0 16 16" version="1.1" xmlns="http://www.w3.org/2000/svg" xmlns:xlink="http://www.w3.org/1999/xlink">
    <!-- Generator: Sketch 45.2 (43514) - http://www.bohemiancoding.com/sketch -->
    <title>Fill 1</title>
    <desc>Created with Sketch.</desc>
    <defs></defs>
    <g id="Symbols" stroke="none" stroke-width="1" fill="none" fill-rule="evenodd">
        <g id="Nav" transform="translate(-1259.000000, -42.000000)" fill="#5A5A5A">
            <path d="M1271.1848,53.0533527 C1272.1056,51.8884944 1272.6784,50.4364218 1272.6784,48.839542 C1272.6784,45.0681534 1269.6104,42 1265.8392,42 C1262.0688,42 1259,45.0681534 1259,48.839542 C1259,52.6109305 1262.0688,55.679084 1265.8392,55.679084 C1267.4368,55.679084 1268.8888,55.1062553 1270.0536,54.1846092 L1273.8688,58 L1275,56.8687434 L1271.1848,53.0533527 Z M1271.0784,48.839542 C1271.0784,51.7276864 1268.728,54.079004 1265.8392,54.079004 C1262.9504,54.079004 1260.6,51.7276864 1260.6,48.839542 C1260.6,45.9505975 1262.9504,43.60008 1265.8392,43.60008 C1268.728,43.60008 1271.0784,45.9505975 1271.0784,48.839542 L1271.0784,48.839542 Z" id="Fill-1" transform="translate(1267.000000, 50.000000) scale(-1, 1) translate(-1267.000000, -50.000000) "></path>
        </g>
    </g>
</svg>