<?xml version="1.0" encoding="UTF-8"?>
<svg width="48px" height="64px" viewBox="0 0 48 64" version="1.1" xmlns="http://www.w3.org/2000/svg" xmlns:xlink="http://www.w3.org/1999/xlink">
    <!-- Generator: Sketch 45.2 (43514) - http://www.bohemiancoding.com/sketch -->
    <title>Page 1</title>
    <desc>Created with Sketch.</desc>
    <defs>
        <polygon id="path-1" points="0 64 48 64 48 0 0 0"></polygon>
    </defs>
    <g id="Page-1" stroke="none" stroke-width="1" fill="none" fill-rule="evenodd">
        <g id="about---desktop" transform="translate(-1077.000000, -752.000000)">
            <g id="Page-1" transform="translate(1077.000000, 752.000000)">
                <path d="M40,44 L41,39 L44,39 C45.104,39 46,39.896 46,41 L46,42 C46,43.105 45.104,44 44,44 L40,44 Z" id="Stroke-1" stroke="#878787" stroke-width="2" stroke-linejoin="round"></path>
                <path d="M40,49 L44,49 C45.104,49 46,48.105 46,47 L46,46 C46,44.896 45.104,44 44,44" id="Stroke-3" stroke="#878787" stroke-width="2" stroke-linejoin="round"></path>
                <path d="M40,54 L43,54 C44.104,54 45,53.105 45,52 L45,51 C45,49.896 44.104,49 43,49" id="Stroke-5" stroke="#878787" stroke-width="2" stroke-linejoin="round"></path>
                <path d="M19,57 L21,57 L24,59 L42,59 C43.104,59 44,58.105 44,57 L44,56 C44,54.896 43.104,54 42,54" id="Stroke-7" stroke="#878787" stroke-width="2" stroke-linejoin="round"></path>
                <mask id="mask-2" fill="white">
                    <use xlink:href="#path-1"></use>
                </mask>
                <g id="Clip-10"></g>
                <polygon id="Stroke-9" stroke="#878787" stroke-width="2" stroke-linejoin="round" mask="url(#mask-2)" points="29 39 41 39 41 35 29 35"></polygon>
                <polyline id="Stroke-11" stroke="#878787" stroke-width="2" mask="url(#mask-2)" points="39 59 39 61 37 63 33 63 31 61 31 59"></polyline>
                <polyline id="Stroke-12" stroke="#878787" stroke-width="2" stroke-linejoin="round" mask="url(#mask-2)" points="0 39 18 39 18 59 0 59"></polyline>
                <path d="M12,39 L12,52" id="Stroke-13" stroke="#878787" stroke-width="2" stroke-linejoin="round" mask="url(#mask-2)"></path>
                <path d="M12,54 L12,56" id="Stroke-14" stroke="#878787" stroke-width="2" stroke-linejoin="round" mask="url(#mask-2)"></path>
                <polyline id="Stroke-15" stroke="#878787" stroke-width="2" stroke-linejoin="round" mask="url(#mask-2)" points="18 42 21 42 25 34"></polyline>
                <polygon id="Stroke-16" stroke="#878787" stroke-width="2" mask="url(#mask-2)" points="47 31 47 25 23 25 23 31 27 35 43 35"></polygon>
                <path d="M45,23 C45,19 45,1 25,1 C35,11 25,15 25,23" id="Stroke-17" stroke="#878787" stroke-width="2" mask="url(#mask-2)"></path>
                <path d="M40,23 C40,20 35,19 37,12 C33,13 31,18 31,23" id="Stroke-18" stroke="#878787" stroke-width="2" mask="url(#mask-2)"></path>
                <path d="M23,31 L28,31" id="Stroke-19" stroke="#878787" stroke-width="2" stroke-linejoin="round" mask="url(#mask-2)"></path>
                <path d="M30,31 L47,31" id="Stroke-20" stroke="#878787" stroke-width="2" stroke-linejoin="round" mask="url(#mask-2)"></path>
            </g>
        </g>
    </g>
</svg>